<?xml version="1.0" ?><!DOCTYPE svg  PUBLIC '-//W3C//DTD SVG 1.1//EN'  'http://www.w3.org/Graphics/SVG/1.1/DTD/svg11.dtd'><svg enable-background="new 0 0 128 128" id="Слой_1" version="1.1" viewBox="0 0 128 128" xml:space="preserve" xmlns="http://www.w3.org/2000/svg" xmlns:xlink="http://www.w3.org/1999/xlink"><g><circle cx="64" cy="64" fill="#ffffff" r="62"/><g><g><path d="M72.2,41H55.8C52,41,49,44.1,49,47.8v21.9c0,0.4,0.3,0.7,0.7,0.7h28.7c0.4,0,0.7-0.3,0.7-0.7V47.8     C79,44.1,76,41,72.2,41z" fill="#C3C3C3"/></g><g><path d="M72.2,40H55.8c-4.3,0-7.8,3.5-7.8,7.8v21.9c0,0.9,0.8,1.7,1.7,1.7h28.7c0.9,0,1.7-0.8,1.7-1.7V47.8     C80,43.5,76.5,40,72.2,40z M78,69.4H50V47.8c0-3.2,2.6-5.8,5.8-5.8h16.4c3.2,0,5.8,2.6,5.8,5.8V69.4z" fill="#252525"/></g><g opacity="0.1"><path d="M49,69.5c0,0.4,0.5,0.9,0.8,0.9h28.4c0.4,0,0.8-0.6,0.8-0.9v-3.2H49V69.5z" fill="#08090A"/></g><g><path d="M84.5,69h-41v51.1c0,0.8,0.1,1.6,0.1,2.4C50,124.8,56.9,126,64,126c7.1,0,14-1.2,20.4-3.4     c0.1-0.8,0.1-1.6,0.1-2.4V69z" fill="#F2D856"/></g><g><polygon fill="#252525" points="60.2,85.4 69.3,85.4 64.7,77.8    "/></g><g><rect fill="#252525" height="6.8" width="8.2" x="69.5" y="89.5"/></g><g><circle cx="54.9" cy="99" fill="#252525" r="4.5"/></g><g><circle cx="64.7" cy="121.4" fill="#252525" r="4.5"/></g><g opacity="0.1"><path d="M46.2,69h-2.7v51.1c0,0.8,0.1,1.6,0.1,2.4c0.9,0.3,1.9,0.6,2.9,0.9c-0.2-1.1-0.3-2.2-0.3-3.3V69z" fill="#FFFFFF"/></g><g opacity="0.1"><path d="M84.5,69h-2.7v51.1c0,1.1-0.1,2.2-0.3,3.3c1-0.3,1.9-0.6,2.9-0.9c0.1-0.8,0.1-1.6,0.1-2.4V69z" fill="#08090A"/></g><g><path d="M59.6,55.4h-4.9c-0.1,0-0.3,0.1-0.3,0.3v3.6c0,0.1,0.1,0.3,0.3,0.3h4.9c0.1,0,0.3-0.1,0.3-0.3v-3.6     C59.9,55.5,59.8,55.4,59.6,55.4z" fill="#434649"/></g><g><path d="M73.3,55.4h-4.9c-0.1,0-0.3,0.1-0.3,0.3v3.6c0,0.1,0.1,0.3,0.3,0.3h4.9c0.1,0,0.3-0.1,0.3-0.3v-3.6     C73.6,55.5,73.5,55.4,73.3,55.4z" fill="#434649"/></g><g><path d="M59.6,54.4h-4.9c-0.7,0-1.3,0.6-1.3,1.3v3.6c0,0.7,0.6,1.3,1.3,1.3h4.9c0.7,0,1.3-0.6,1.3-1.3v-3.6     C60.9,54.9,60.3,54.4,59.6,54.4z M58.9,58.5h-3.5v-2.1h3.5V58.5z" fill="#252525"/></g><g><path d="M73.3,54.4h-4.9c-0.7,0-1.3,0.6-1.3,1.3v3.6c0,0.7,0.6,1.3,1.3,1.3h4.9c0.7,0,1.3-0.6,1.3-1.3v-3.6     C74.6,54.9,74,54.4,73.3,54.4z M72.6,58.5h-3.5v-2.1h3.5V58.5z" fill="#252525"/></g><g><path d="M85.5,69c0-0.6-0.4-1-1-1h-41c-0.6,0-1,0.4-1,1v51.1c0,0.7,0,1.4,0.1,2c0.7,0.3,1.4,0.5,2.1,0.7     c-0.1-0.9-0.2-1.8-0.2-2.8V70h39v50.1c0,0.9-0.1,1.9-0.2,2.8c0.7-0.2,1.4-0.5,2.1-0.7c0.1-0.7,0.1-1.3,0.1-2V69z" fill="#252525"/></g><g><path d="M64.7,80.6c-0.6,0-1,0.4-1,1v39.7c0,0.6,0.4,1,1,1s1-0.4,1-1V81.6C65.7,81.1,65.3,80.6,64.7,80.6z" fill="#252525"/></g><g><path d="M73.6,92c-0.6,0-1,0.4-1,1v5.7c0,2-1.1,3.9-2.8,5l-5.6,3.4c-0.5,0.3-0.6,0.9-0.3,1.4     c0.2,0.3,0.5,0.5,0.9,0.5c0.2,0,0.4,0,0.5-0.1l5.6-3.4c2.3-1.4,3.8-4,3.8-6.7V93C74.6,92.4,74.1,92,73.6,92z" fill="#252525"/></g><g><path d="M65.2,113.8l-6.6-4.1c-1.7-1.1-2.7-2.9-2.7-4.9V99c0-0.6-0.4-1-1-1s-1,0.4-1,1v5.6c0,2.7,1.4,5.2,3.7,6.6     l6.6,4.1c0.2,0.1,0.4,0.2,0.5,0.2c0.3,0,0.7-0.2,0.8-0.5C65.9,114.7,65.7,114,65.2,113.8z" fill="#252525"/></g></g></g></svg>