<?xml version="1.0" ?><!DOCTYPE svg  PUBLIC '-//W3C//DTD SVG 1.1//EN'  'http://www.w3.org/Graphics/SVG/1.1/DTD/svg11.dtd'><svg enable-background="new 0 0 8 8" height="8px" id="Слой_1" version="1.1" viewBox="0 0 128 128" width="128px" xml:space="preserve" xmlns="http://www.w3.org/2000/svg" xmlns:xlink="http://www.w3.org/1999/xlink"><g><path d="M120.6669922,67.578125c-28.9101563-12.887207-44.296875-37.8583984-63.4179688-56.5219727    c-1.8476563-1.9614258-5.9355469-3.5473633-8.7480469-3.4594727c-6.0961914,0.3007813-11.1816406,0.9824219-15.6376953,2.2055664    l-5.3452148-9.2583008L11.2392578,9.9423828l5.3452148,9.2583008c-3.2875977,3.2480469-6.4204102,7.3110352-9.7290039,12.4399414    c-1.480957,2.390625-2.1523438,6.7246094-1.378418,9.3061523c6.6030273,25.8911133,20.5361328,51.7016602,17.2402344,83.1831055    c-0.6000977,3.3857422,1.8305664,4.4033203,5.921875,2.0410156l37.277832-21.5224609l6.4130859,11.1064453l16.2783203-9.3984375    L82.1962891,95.25l37.2783203-21.5234375C123.5654297,71.3632813,123.9003906,68.7509766,120.6669922,67.578125z" fill="#373737"/></g></svg>